<!DOCTYPE svg PUBLIC "-//W3C//DTD SVG 1.1//EN" "http://www.w3.org/Graphics/SVG/1.1/DTD/svg11.dtd">
<!-- Uploaded to: SVG Repo, www.svgrepo.com, Transformed by: SVG Repo Mixer Tools -->
<svg width="150px" height="150px" viewBox="0 -9.67 325.654 325.654" xmlns="http://www.w3.org/2000/svg" fill="#000000">
<g id="SVGRepo_bgCarrier" stroke-width="0"/>
<g id="SVGRepo_tracerCarrier" stroke-linecap="round" stroke-linejoin="round"/>
<g id="SVGRepo_iconCarrier">
<defs>
<style>.a{fill:#7a7473;}.b{fill:#211715;}.c{fill:#ffffff;}.d{fill:none;}.e{fill:#4d4544;}</style>
</defs>
<path class="a" d="M270.561,257.837q-.9.788-1.943,1.573c-9.59,7.17-25,13.17-33.39,15.95H226.9L82.632,207.473c2.52-14.575,11.6-60.942,17.344-65.456l-.036.333c4.075,4.341,9.737,6.413,15.837,6.52a43.192,43.192,0,0,0,5.581-.214c1.094-3.359,2.4-6.934,2.821-7.828,5.369-1.444,7.409-4.073,8.962-9.713a2.976,2.976,0,0,1,.155-.436,53.484,53.484,0,0,1,8.69-13.787c7.671,5.533,15.81,7.077,25.374,6.236,5.9-.519,13.4-3.387,17.028-5.208a52.159,52.159,0,0,0,8.868-5.834,40.3,40.3,0,0,0,9.314-9.761c.489,1.939,1.009,4.147,1.658,6.775,1.01,4.21,1.22,5.22,2.08,6.42.13.17.27.35.43.54,1.27,1.56,5.9,4.01,8.9,4.68,6.08,2.08,11.13,3.58,17.99,6.33,7.68,3.07,14.13,6.47,19.84,12.45,5.12,5.37,10.51,15.74,13.92,27.67,6.78,23.67,8.59,31.89,10.81,44.14,1,5.22,2.65,16.21,2.51,20.04-.11,2.96-.88,10.03-1.84,12.88C277.371,248.652,275.753,253.28,270.561,257.837Z"/>
<path class="b" d="M120.325,183.169c2.56,8.289,5.478,16.481,8.286,24.688.5,1.473,1,2.948,1.526,4.415a2.462,2.462,0,0,0,2.952,1.676A2.42,2.42,0,0,0,134.765,211c-2.871-8.065-5.553-16.205-8.253-24.328-.528-1.589-1.064-3.176-1.558-4.775-.909-2.942-5.544-1.687-4.629,1.276Z"/>
<path class="c" d="M128.272,89.981c-.095-.694-.187-1.416-.281-2.123-2.327-.779-4.537-1.277-6.655-.711a11.251,11.251,0,0,0-4.68,2.425,23.769,23.769,0,0,0-2.413,2.531,6.991,6.991,0,0,0-3.64,2.05,9.277,9.277,0,0,0-2.02,3.506,2.928,2.928,0,0,1-2,1.8,10.242,10.242,0,0,0-5.908,5.024,3.256,3.256,0,0,0-.283.688,13.969,13.969,0,0,0-.467,2.917c-.007.117-.009.236-.006.354.262,11.31,1.278,22.623.02,33.905,4.075,4.341,9.737,6.413,15.837,6.52a43.178,43.178,0,0,0,5.581-.214c1.094-3.359,2.4-6.934,2.821-7.829,5.369-1.443,7.409-4.072,8.962-9.712a2.976,2.976,0,0,1,.155-.436,53.257,53.257,0,0,1,8.7-13.781c-.374-.269-.748-.538-1.121-.826C133.239,110.16,129.729,100.608,128.272,89.981Z"/>
<path class="a" d="M129.21,95.3a6.392,6.392,0,0,1-2.313.567,14.071,14.071,0,0,0-3.04.239,84.632,84.632,0,0,1-.026,8.84,2.8,2.8,0,0,1-.509,1.8,3.038,3.038,0,0,1-3.668.57c-1.13-.514-1.6-1.143-2.832-1.09-1.344.058-1.756,2.61-1.942,4.144-.32,2.392-.495,5.2-.762,7.479,1.539,2.294,3.357,4.79,5.2,7.263a3.411,3.411,0,0,0,4.961.562c2.15-1.856,4.3-3.794,6.392-5.723,2.492-2.3,4.892-4.576,7.121-6.7C133.368,108.514,130.725,102.261,129.21,95.3Z"/>
<path class="b" d="M142.167,113.238a48.89,48.89,0,0,0-7.771,10.068,59.249,59.249,0,0,0-2.995,5.77c-.691,1.532-1.012,3.223-1.729,4.722a7.954,7.954,0,0,1-5.3,4.475,3.316,3.316,0,0,0-2.392,1.636,21.9,21.9,0,0,0-.828,2.065c-.75,2-1.441,4.015-2.106,6.041-.964,2.942,3.669,4.2,4.629,1.276q.765-2.335,1.594-4.648c.2-.567.412-1.134.626-1.7.1-.263.2-.524.306-.785.2-.5-.118.252.053-.121l-1.434,1.1a14.736,14.736,0,0,0,6.609-3.519,15.853,15.853,0,0,0,3.62-6.5,42.093,42.093,0,0,1,10.515-16.5c2.209-2.168-1.186-5.561-3.394-3.395Z"/>
<path class="b" d="M123.027,98.785c3.232-.912,7.11-.154,9.694-2.811,2.789-2.867,1.543-7.249-1.466-9.318a14.781,14.781,0,0,0-5.426-1.876,11.734,11.734,0,0,0-5.923.288,16.516,16.516,0,0,0-7.36,5.338l1.059-.617a9.523,9.523,0,0,0-6.423,5.08c-.483.955-.524,2.043-1.588,2.382A11.281,11.281,0,0,0,101.92,99.3a11.041,11.041,0,0,0-4.182,6.889c-.473,3.16-.1,6.456.028,9.637.252,6.384.537,12.777.3,19.167-.06,1.638-.153,3.275-.29,4.908a22.712,22.712,0,0,0-.239,2.454,3.3,3.3,0,0,0,1.256,2.262,21.892,21.892,0,0,0,6.558,4.436c5.978,2.609,12.694,2.675,19.039,1.574a2.42,2.42,0,0,0,1.677-2.952,2.456,2.456,0,0,0-2.953-1.676c-7.572,1.313-15.928.454-21.48-5.341l.7,1.7a139.282,139.282,0,0,0,.493-19.4c-.1-3.2-.243-6.392-.361-9.588-.06-1.633-.179-3.283-.153-4.918a6.348,6.348,0,0,1,.814-3.394,8.89,8.89,0,0,1,2-2.215c1.066-.829,2.325-.973,3.457-1.647,2.369-1.412,2.321-4.451,4.521-6.021a4.689,4.689,0,0,1,1.447-.7,3.448,3.448,0,0,0,1.813-1.165,16.658,16.658,0,0,1,2.231-2.244,7.725,7.725,0,0,1,6.172-1.606,10.434,10.434,0,0,1,3.96,1.286c.671.516,1.064,1.1.592,1.817s-2.21.9-3.028.91a17.679,17.679,0,0,0-4.547.691c-2.968.837-1.707,5.47,1.276,4.628Z"/>
<path class="b" d="M112.235,119.344q1.371,2.013,2.806,3.981a33.165,33.165,0,0,0,2.9,3.844,5.845,5.845,0,0,0,7.78.4c4.846-3.862,9.273-8.349,13.765-12.611,2.246-2.13-1.153-5.521-3.394-3.394-3.789,3.595-7.586,7.185-11.5,10.649-1.074.951-2.241,2.68-3.428,1.374a36.69,36.69,0,0,1-2.382-3.242q-1.222-1.7-2.4-3.425a2.459,2.459,0,0,0-3.283-.861,2.421,2.421,0,0,0-.861,3.283Z"/>
<path class="b" d="M104.636,116.746c.021,2.647.157,6.109,2.372,7.9a5.855,5.855,0,0,0,5.238.963,5.556,5.556,0,0,0,3.536-3.734,21.144,21.144,0,0,0,.823-4.824c.206-1.965.343-3.937.576-5.9a13.985,13.985,0,0,1,.3-1.89,6.046,6.046,0,0,0,.249-.883c-.01.193.047-.22.1-.186a5.576,5.576,0,0,1-.591.376c-.481.317-.321-.154-.028.113.106.1-.982-.441.126.1.376.184.72.426,1.1.6a6.4,6.4,0,0,0,2.9.685,4.882,4.882,0,0,0,4.809-4.257,53.394,53.394,0,0,0,.188-7.376c-.057-3.085-4.857-3.1-4.8,0,.022,1.24.025,2.48,0,3.72a10.867,10.867,0,0,1-.1,3.018c.029-.057.3.181-.249.127.024,0-.227-.068-.306-.085-.841-.186-1.545-.912-2.388-1.165-4.83-1.447-5.736,3.837-6.135,7.3-.24,2.087-.377,4.184-.614,6.27-.129,1.13-.24,2.712-.947,3.486.227-.249-.285,0-.674-.109-.334-.095-.257-.191-.088-.013q-.2-.389-.073-.047a3.177,3.177,0,0,1-.122-.407,19.631,19.631,0,0,1-.4-3.784c-.024-3.088-4.824-3.095-4.8,0Z"/>
<path class="b" d="M96.579,142.458a45.01,45.01,0,0,0-3.729,9.1c-1.418,4.365-2.606,8.8-3.725,13.255-2.477,9.853-4.584,19.8-6.533,29.771-.8,4.075-1.566,8.156-2.274,12.247a2.469,2.469,0,0,0,1.676,2.952,2.421,2.421,0,0,0,2.953-1.676c1.425-8.236,3.055-16.44,4.8-24.613,2.059-9.644,4.226-19.31,7.126-28.741.617-2.006,1.273-4,2.025-5.963q.247-.645.512-1.284c-.221.534.246-.553.334-.744a20.917,20.917,0,0,1,.981-1.885c1.58-2.663-2.568-5.08-4.145-2.423Z"/>
<path class="c" d="M215.736,250.758c-6.317,1.268-11.709,2.389-17.918.8a39.233,39.233,0,0,1-9.386-4c-2.841-1.636-6.222-2.8-9.379-1.917-3.627,1.015-6,4.4-8.092,7.521,2.829,9.006,5.7,18.152,8.257,26.311a10.172,10.172,0,0,0,5.625-2.973l-.17.292a4.731,4.731,0,0,0,0,5.469c1.13,1.5,3.885,1.781,5.4.906,4.564-2.707,8.268-6.082,13.127-8.848a19.548,19.548,0,0,0,11.331,3.982c2.818.066,4.785-.011,6.693-.926a11.175,11.175,0,0,0,2.655-1.847,22.482,22.482,0,0,0,4.333-6.278c.462-1.058,1.028-3.639.647-4.744-1.645-4.778-6.145-11.294-10.119-14.339C217.709,250.363,216.712,250.562,215.736,250.758Z"/>
<path class="c" d="M124.99,67.011c-.021-.138-.043-.275-.064-.413a4.956,4.956,0,0,0,3.183.743c5.038-.277,13.769-.726,25.867-.882,18.77-.242,39.144,0,52.269.278,3.173.066,8.8,1.667,11.259,3.555,0,0,0,.091,0,.244a5.627,5.627,0,0,1,2.572,2.608c1.563,3.216.976,8.818-.582,12.181a17.72,17.72,0,0,1-6.484,8.061,12.9,12.9,0,0,1-6.932,1.623c1.94-1.487-2.448,5.7-2.448,5.7a40.7,40.7,0,0,1-10.375,11.376,52.159,52.159,0,0,1-8.868,5.834c-3.63,1.821-11.128,4.689-17.028,5.208-10.025.881-18.484-.858-26.488-7.056-7.633-5.912-11.143-15.464-12.6-26.091-.87-6.351-1.662-13.28-2.789-20.172C125.3,68.887,125.138,67.952,124.99,67.011Z"/>
<path class="b" d="M223.452,285.131c-14.488,6.441-33.49,14.81-41.338,18.089l-.589.246.565-.337a5.633,5.633,0,0,0,2.492-6.527c-1.466-4.689-3.314-10.59-5.364-17.126a10.166,10.166,0,0,0,5.625-2.973l.151-.147-.321.439a4.731,4.731,0,0,0,0,5.469c1.13,1.5,3.885,1.781,5.4.906,3.242-1.923,6.055-4.18,9.151-6.32l8.6.067a19.481,19.481,0,0,0,6.708,1.387c2.818.066,4.785-.011,6.693-.926.2-.095.4-.2.593-.313l.067-.04c1.2.02,2.775.036,4.531.049,3.3.026,7.207.042,10.266.056a1,1,0,0,1,.412,1.909c-2.724,1.227-6.436,2.887-10.679,4.777Z"/>
<path class="b" d="M221.818,279.424c2.913.047,5.827.061,8.74.077l4.688.022a7.4,7.4,0,0,0,1.084,0l.348,0q.4-3.208-.973-2.486a8,8,0,0,0-1.2.54q-6.025,2.706-12.064,5.386-14.64,6.509-29.321,12.924-3.378,1.473-6.761,2.931-1.466.63-2.932,1.255l-.568.241-.321.136-1.137.478a2.48,2.48,0,0,0-1.677,2.952,2.415,2.415,0,0,0,2.953,1.676c9.289-3.879,18.491-7.97,27.7-12.033q8.019-3.537,16.027-7.1,3.394-1.51,6.788-3.027l2.943-1.318a12.363,12.363,0,0,0,2.646-1.306,3.413,3.413,0,0,0-.288-5.515c-1.552-.951-3.989-.543-5.742-.551-3.644-.017-7.289-.029-10.933-.088-3.09-.049-3.09,4.751,0,4.8Z"/>
<path class="b" d="M130.754,23.713c-5.38,6.954-7.931,15.3-8.822,23.969a76.925,76.925,0,0,0,1.88,25.681c.729,3,5.359,1.73,4.629-1.276a73.619,73.619,0,0,1-1.777-23.7c.668-7.488,2.826-15.259,7.484-21.28a2.48,2.48,0,0,0,0-3.394,2.416,2.416,0,0,0-3.394,0Z"/>
<path class="b" d="M222.724,76.022c1.973-4.356,2.617-9.181,3.026-13.906a58.612,58.612,0,0,0-.023-12.5c-1.187-9.362-3.842-18.464-9.744-25.97A56.012,56.012,0,0,0,190.406,5.211c-7.882-2.69-16.08-3.02-24.277-1.954a59.325,59.325,0,0,0-15.861,4.068,41.34,41.34,0,0,0-12.927,8.846c-2.186,2.188,1.207,5.583,3.395,3.395,6.2-6.2,13.988-9.532,22.537-11.057,7.539-1.344,15.189-1.586,22.574.343A50.094,50.094,0,0,1,210.02,24.013a38.781,38.781,0,0,1,6.919,10.335,53.811,53.811,0,0,1,3.514,12.276,54.766,54.766,0,0,1,.663,13.262c-.285,4.522-.644,9.537-2.536,13.713a2.472,2.472,0,0,0,.861,3.284,2.418,2.418,0,0,0,3.283-.861Z"/>
<path class="b" d="M123.292,71.175c.822,5.193,1.471,10.41,2.155,15.623a82.223,82.223,0,0,0,2.577,13.506,39.138,39.138,0,0,0,5.313,11.249,32.542,32.542,0,0,0,9.392,8.737c14.975,9.38,35.3,5.852,49.091-4.123a52.645,52.645,0,0,0,10.443-9.421,46.664,46.664,0,0,0,6.054-9.568,2.47,2.47,0,0,0-.861-3.283,2.418,2.418,0,0,0-3.283.861c-6.1,13.284-19.266,22.291-33.3,25.392-7.64,1.688-16.3,1-23.3-2.616a29.19,29.19,0,0,1-9.155-7.176,31.1,31.1,0,0,1-5.236-9.692,68.59,68.59,0,0,1-2.909-13.636c-.751-5.715-1.455-11.436-2.356-17.13a2.418,2.418,0,0,0-2.953-1.676,2.459,2.459,0,0,0-1.676,2.953Z"/>
<path class="b" d="M211.262,73.061a4.891,4.891,0,0,1,4.523-.646,3.2,3.2,0,0,1,2.072,1.656c1.363,2.524.8,6.284-.035,8.934a16.347,16.347,0,0,1-4.867,7.468c-1.918,1.609-5.446,2.977-8.023,1.878a2.479,2.479,0,0,0-3.283.861,2.415,2.415,0,0,0,.861,3.283,13.289,13.289,0,0,0,10.838-.573c3.121-1.45,5.6-4.428,7.228-7.392a22.126,22.126,0,0,0,2.8-9.721c.142-3.1-.4-6.573-2.665-8.873a9.616,9.616,0,0,0-11.873-1.02,2.465,2.465,0,0,0-.861,3.284,2.422,2.422,0,0,0,3.284.861Z"/>
<path class="d" d="M179.257,75.419c.712,2.139.393,7.1-3.679,7.618-5.4.09-5.818-5.9-4.066-8.753C172.946,71.944,177.3,70.886,179.257,75.419Z"/>
<path class="d" d="M146.782,75.22c.658,2.077.378,6.894-3.356,7.382-4.949.072-5.353-5.735-3.753-8.5C140.982,71.832,144.97,70.817,146.782,75.22Z"/>
<path class="b" d="M154.882,85c-.674,1.206-1.31,2.434-1.882,3.691a5.251,5.251,0,0,0-.6,2.136,3.129,3.129,0,0,0,1.151,2.47,4.42,4.42,0,0,0,1.931,1.026c.47.092.933.1,1.4.16a2.391,2.391,0,0,0,1.7-.7,2.4,2.4,0,0,0,0-3.394l-.485-.375a2.4,2.4,0,0,0-1.212-.328c-.211-.025-.424-.027-.636-.053l.638.086a2.244,2.244,0,0,1-.544-.151l.573.242a2.611,2.611,0,0,1-.457-.279l.486.375a2.583,2.583,0,0,1-.3-.274l.375.486a.672.672,0,0,1-.08-.128l.242.573a1.008,1.008,0,0,1-.062-.216l.086.639a1.528,1.528,0,0,1,.008-.317l-.086.638a2.864,2.864,0,0,1,.175-.572l-.242.573c.578-1.329,1.262-2.618,1.969-3.882a2.511,2.511,0,0,0,.242-1.85A2.4,2.4,0,0,0,154.882,85Z"/>
<path class="b" d="M131.141,72.451c3.5-.355,17.2-.293,27.073-.636,4.415-.153,29.416-.083,36.339.262a3.486,3.486,0,0,1,3.05,2.571,6.015,6.015,0,0,1-1.014,5.28c-5.209,6.283-14.142,9.522-21.014,9.218-5.8-.256-10.487-2.1-14.551-6.434a5.385,5.385,0,0,0-7.775-.228c-2.748,2.718-6.395,4.812-10.212,4.624-6.256-.309-10.6-2.335-13.476-9.492a5.709,5.709,0,0,1-.436-3.474A2.4,2.4,0,0,1,131.141,72.451Z"/>
<path class="b" d="M216.63,22.82a42.827,42.827,0,0,1,8.417,22.528,60.851,60.851,0,0,1-.658,18.791c-.665,3.078-3.761,6.558-6.885,6.153-2.457-1.888-8.086-3.489-11.259-3.555-13.125-.275-33.5-.52-52.269-.278-12.1.156-20.829.6-25.867.882-2.951.163-4.583-1.333-4.812-3.937-.122-1.383-.143-3.239-.125-4.964.137-13.175,1.664-22.686,5.125-29.453,5.009-9.794,9.9-15.1,18.764-20.25a48.405,48.405,0,0,1,21.267-6.109A64.879,64.879,0,0,1,191.29,4.773,46.063,46.063,0,0,1,216.63,22.82Z"/>
<path class="b" d="M214.558,24.032a44.2,44.2,0,0,1,5.459,9.769,45.434,45.434,0,0,1,2.63,11.547,65.314,65.314,0,0,1,.036,14.618c-.347,2.8-1.238,8.27-5.179,7.926l1.212.328a22.711,22.711,0,0,0-9.58-3.567,70.041,70.041,0,0,0-10.2-.452q-12.529-.2-25.061-.236c-9.048-.021-18.1.009-27.143.229q-5.607.136-11.211.379c-2.632.114-5.311.422-7.945.377-1.155-.019-1.589-.325-1.81-1.261a24.912,24.912,0,0,1-.185-5.729,123.3,123.3,0,0,1,.729-12.554,57.218,57.218,0,0,1,1.971-9.875,39.926,39.926,0,0,1,3.783-8.474,41.158,41.158,0,0,1,13.066-14.3,47.119,47.119,0,0,1,22.828-7.7,62.822,62.822,0,0,1,25.756,3,43.462,43.462,0,0,1,17.929,12.32,46.67,46.67,0,0,1,2.918,3.658,2.47,2.47,0,0,0,3.284.861,2.419,2.419,0,0,0,.861-3.284A49.953,49.953,0,0,0,196.357,3.936C185.963-.126,174.238-.78,163.266.775A49.5,49.5,0,0,0,136.137,13.8a48.245,48.245,0,0,0-12.963,22.162,77.419,77.419,0,0,0-2.091,14.113c-.195,2.857-.29,5.721-.313,8.585-.018,2.3-.223,4.952.646,7.121a6.256,6.256,0,0,0,5.328,3.909,30.746,30.746,0,0,0,4.936-.134q6.555-.33,13.118-.509c11.579-.319,23.169-.322,34.753-.257q7.962.045,15.925.161,3.54.051,7.08.116a35.434,35.434,0,0,1,5.8.305,23.591,23.591,0,0,1,6.182,1.936c.993.495,1.83,1.285,2.963,1.387a7.052,7.052,0,0,0,3.74-.79c5.2-2.564,6-8.67,6.429-13.814.852-10.283-.429-21.422-5.31-30.633a53.067,53.067,0,0,0-3.66-5.846,2.467,2.467,0,0,0-3.284-.861A2.42,2.42,0,0,0,214.558,24.032Z"/>
<path class="b" d="M153.976,106.945a26.658,26.658,0,0,0,10.015-.871,2,2,0,0,0-1.064-3.858,21.621,21.621,0,0,1-2.246.534c-.221.04-.443.073-.664.11-.437.074.343-.035-.14.021-.394.045-.789.087-1.185.118a27.31,27.31,0,0,1-4.716-.054,2.007,2.007,0,0,0-2,2,2.054,2.054,0,0,0,2,2Z"/>
<path class="b" d="M200.254,102.958c.587,2.335,1.151,4.676,1.717,7.016a36.31,36.31,0,0,0,1.372,5.031c1.372,3.425,4.705,5.332,7.946,6.739,4.17,1.811,8.688,2.948,12.991,4.421a127.891,127.891,0,0,1,13.764,5.42,47.388,47.388,0,0,1,11.212,7.2,38.576,38.576,0,0,1,7.49,9.225c5.23,8.76,7.982,18.458,10.705,28.209a380.987,380.987,0,0,1,8.967,38.727c1.152,6.786,2.293,13.615,1.572,20.5-.769,7.338-2.764,14.68-8.282,19.923a51.75,51.75,0,0,1-11.249,7.565,132.178,132.178,0,0,1-12.233,5.769q-5.369,2.22-10.877,4.088c-.279.094-.861.247-.16.168a2.844,2.844,0,0,1-.292,0c-.489,0-.978,0-1.467,0H226.9c-3.089,0-3.094,4.8,0,4.8h6.733a8.419,8.419,0,0,0,2.861-.3q2.524-.849,5.019-1.781c8.574-3.192,17.145-6.876,24.867-11.823a35.27,35.27,0,0,0,10.6-9.7,33.61,33.61,0,0,0,4.5-10.3,63.466,63.466,0,0,0,1.584-11.567,52.058,52.058,0,0,0-.711-9.905,306.005,306.005,0,0,0-7.953-38.975c-2.639-9.9-5.105-19.971-9.208-29.382a66.043,66.043,0,0,0-6.62-12.013,42.344,42.344,0,0,0-9.336-9.39c-7.868-5.847-17.529-9.06-26.734-12.125-4.129-1.374-8.523-2.388-12.251-4.7a5.635,5.635,0,0,1-2.449-2.489c.249.506-.033-.12-.094-.306-.1-.3-.186-.609-.27-.916-.306-1.124-.562-2.262-.836-3.394-.566-2.34-1.129-4.682-1.716-7.016-.753-2.994-5.384-1.726-4.629,1.276Z"/>
<path class="c" d="M196.766,126.23h0C196.811,126.207,196.815,126.2,196.766,126.23Z"/>
<path class="b" d="M274.78,255.542q8.126,0,16.249-.024l25.838-.039q3.234,0,6.469-.009c3.088,0,3.094-4.8,0-4.8q-8.379,0-16.757.025l-25.7.038q-3.051,0-6.1.009c-3.088,0-3.093,4.8,0,4.8Z"/>
<path class="b" d="M2.318,255.55c8.082-.005,16.164-.047,24.246-.069,1.374,0,2.749-.01,4.123-.011,3.088,0,3.094-4.8,0-4.8-8.218,0-16.437.046-24.655.07-1.238,0-2.476.009-3.714.01-3.088,0-3.093,4.8,0,4.8Z"/>
<path class="b" d="M223.784,239.937c4.927-2.09,9.662-4.524,14.474-6.855a2.415,2.415,0,0,0,.861-3.284,2.463,2.463,0,0,0-3.284-.861c-4.812,2.331-9.547,4.766-14.473,6.855a2.4,2.4,0,0,0-.861,3.284,2.478,2.478,0,0,0,3.283.861Z"/>
<path class="b" d="M226.967,194.718l7.318,26.786c.813,2.976,5.445,1.713,4.628-1.276L231.6,193.442c-.813-2.976-5.445-1.713-4.629,1.276Z"/>
<path class="b" d="M151.287,124.063h.01a2.423,2.423,0,0,0,2.314-1.762c.092-.526.17-1.057.3-1.574s.326-.488.021-.445c.75-.106,1.7,1.059,2.192,1.465a12.783,12.783,0,0,0,7.2,2.824,33.885,33.885,0,0,0,7.4-.386,45.8,45.8,0,0,0,8.6-1.538c2.916-.972,1.666-5.609-1.276-4.628a43.955,43.955,0,0,1-8.959,1.558c-2.554.28-5.292.581-7.775-.251-2.619-.878-4-3.572-6.96-3.814a4.57,4.57,0,0,0-4.054,1.758,8.158,8.158,0,0,0-1.328,3.755l2.314-1.762h-.01c-3.088,0-3.094,4.8,0,4.8Z"/>
<path class="b" d="M173.14,254.218c1.8-2.679,4.042-6.112,7.576-6.457a10.531,10.531,0,0,1,5.752,1.457c2.092,1.1,4.123,2.231,6.311,3.143a29.484,29.484,0,0,0,13,2.334c4.593-.248,9.095-1.355,13.6-2.211l-2.335-.617a29.2,29.2,0,0,1,6.228,7.02,36.734,36.734,0,0,1,2.471,4.323,13.3,13.3,0,0,1,.75,1.786,2.488,2.488,0,0,1,.046,1.265,8.3,8.3,0,0,1-1.3,3.521,18.4,18.4,0,0,1-2.631,3.636c-2.034,2.092-4.287,2.522-7.089,2.5a18.32,18.32,0,0,1-11.2-3.731,2.415,2.415,0,0,0-3.283.861,2.459,2.459,0,0,0,.861,3.284,22.135,22.135,0,0,0,11.358,4.3c3.294.3,6.924.175,9.845-1.539a18.973,18.973,0,0,0,6.782-7.8,13.6,13.6,0,0,0,1.418-4.738,8.772,8.772,0,0,0-.976-4.8,39.659,39.659,0,0,0-5.867-9.271,26.8,26.8,0,0,0-3.525-3.611,3.4,3.4,0,0,0-3.073-.97c-1.163.2-2.319.455-3.476.686a46.493,46.493,0,0,1-11.776,1.311,28.2,28.2,0,0,1-11.436-3.567c-4.053-2.142-8.4-4.441-13.108-2.894-4.121,1.354-6.743,4.908-9.067,8.358-1.73,2.569,2.426,4.974,4.145,2.423Z"/>
<path class="b" d="M175.172,265.159l4.48-4.321a2.4,2.4,0,0,0,0-3.394,2.412,2.412,0,0,0-1.7-.7,2.532,2.532,0,0,0-1.7.7l-4.48,4.321a2.4,2.4,0,0,0,0,3.394,2.417,2.417,0,0,0,1.7.7,2.537,2.537,0,0,0,1.7-.7Z"/>
<path class="b" d="M180.415,281.651a13.689,13.689,0,0,0,3.738-1.523,19.371,19.371,0,0,0,3.041-2.561c2.05-1.97,4.182-3.854,6.22-5.839a2.4,2.4,0,0,0-3.395-3.394c-1.933,1.884-3.952,3.676-5.905,5.538-.482.46-.951.935-1.443,1.384-.085.077-.588.418-.584.5,0-.049.432-.312.132-.105-.1.07-.2.143-.3.211q-.31.207-.638.385c-.113.061-.227.12-.342.176-.033.016-.5.248-.152.077s-.1.038-.182.067c-.14.052-.281.1-.423.148-.343.114-.691.212-1.04.306a2.4,2.4,0,1,0,1.276,4.629Z"/>
<path class="b" d="M182.4,262.543c-2.135,2.347-4.435,4.546-6.78,6.681a2.418,2.418,0,0,0,0,3.394,2.454,2.454,0,0,0,3.394,0c2.345-2.135,4.645-4.334,6.78-6.681a2.4,2.4,0,1,0-3.394-3.394Z"/>
<path class="b" d="M182.6,275.583a7.153,7.153,0,0,0-.126,7.721,6.736,6.736,0,0,0,6.908,2.619,8.882,8.882,0,0,0,3.227-1.5c1.212-.775,2.388-1.6,3.555-2.443,2.287-1.648,4.547-3.332,6.946-4.816a2.4,2.4,0,0,0-2.423-4.145c-3.888,2.406-7.4,5.367-11.293,7.756-.205.126-.415.245-.62.369s.365-.067-.061.018c-.179.035-.6.126-.18.076a4.72,4.72,0,0,1-.651.026c-.063,0-.645-.066-.339-.016s-.269-.072-.327-.089c-.1-.029-.632-.291-.23-.068-.107-.059-.584-.407-.206-.081a1.681,1.681,0,0,1-.572-1.143,2.919,2.919,0,0,1,.021-.762,2.3,2.3,0,0,1,.516-1.1,2.424,2.424,0,0,0-.861-3.284,2.449,2.449,0,0,0-3.284.861Z"/>
<path class="b" d="M24.367,207.767c30.788.512,101.072.672,126.167.839a8.79,8.79,0,0,1,8.329,6.141c5.972,18.886,19.4,61.641,25.719,81.855a5.633,5.633,0,0,1-5.4,7.317c-27.194-.1-100.462-.36-128.631-.93a5.623,5.623,0,0,1-5.264-3.963c-5.555-17.964-19.82-63.232-26.392-83.912A5.639,5.639,0,0,1,24.367,207.767Z"/>
<path class="b" d="M24.367,210.167c14.379.238,28.762.331,43.143.423q25.2.162,50.4.257,10.6.046,21.2.1,4.14.019,8.28.044c3.068.018,6.222-.168,8.251,2.621a15.02,15.02,0,0,1,1.752,4.442q.708,2.239,1.414,4.48,1.686,5.344,3.368,10.692,3.912,12.424,7.814,24.851,3.846,12.245,7.685,24.491,1.619,5.164,3.236,10.329c.776,2.48,3.052,6.784-.324,8.328-1.138.52-2.6.294-3.829.289l-3.975-.014-9.171-.034q-10.962-.042-21.926-.093-24.94-.114-49.881-.3c-13.491-.1-26.983-.206-40.472-.469-1.5-.029-2.927-.386-3.617-1.89a32.119,32.119,0,0,1-1.2-3.821q-1.446-4.653-2.9-9.3-3.631-11.618-7.285-23.227-7.176-22.818-14.4-45.62c-.421-1.327-1.2-2.86-.774-4.241a3.291,3.291,0,0,1,3.212-2.334c3.086-.04,3.094-4.84,0-4.8a8.135,8.135,0,0,0-7.956,9.717,47.092,47.092,0,0,0,1.425,4.62q.786,2.479,1.571,4.957,3.753,11.854,7.491,23.714,7.406,23.493,14.747,47.008c1.1,3.546,1.849,7.463,5.562,9.211,2.807,1.321,6.541.857,9.59.905q10.269.162,20.538.249,25.367.246,50.735.355,22.469.117,44.936.194l4.052.014a13.2,13.2,0,0,0,5.08-.561,8.143,8.143,0,0,0,4.778-5.2c.653-2.148.116-4.154-.527-6.212q-3.468-11.084-6.945-22.163-7.822-24.933-15.674-49.858c-1.014-3.215-1.781-6.721-3.215-9.777-2.032-4.329-6.346-6.313-10.932-6.343q-8.967-.057-17.935-.092-24.9-.113-49.795-.233c-16.192-.088-32.384-.183-48.574-.381q-4.476-.054-8.952-.127C21.277,205.316,21.276,210.116,24.367,210.167Z"/>
<path class="e" d="M78.021,253.825c-.192-2.285,1.5-4.161,3.755-4.893a7.663,7.663,0,0,1,6.248.675,6.733,6.733,0,0,1,3.217,5.472,6.126,6.126,0,0,1-2.284,4.046,6.007,6.007,0,0,1-3.824,1.283,6.8,6.8,0,0,1-4.371-1.742,11.057,11.057,0,0,1-2.568-3.932A4.5,4.5,0,0,1,78.021,253.825Z"/>
<path class="e" d="M112.109,253.825c-.883-2.285-3.457-4.161-6.056-4.893-2.14-.6-4.5-.543-5.93.675s-1.6,3.552-.645,5.472a11.8,11.8,0,0,0,4.186,4.046,8.87,8.87,0,0,0,4.428,1.283,4.162,4.162,0,0,0,3.552-1.742,4.808,4.808,0,0,0,.462-1.111,6.1,6.1,0,0,0,.257-2.821A4.8,4.8,0,0,0,112.109,253.825Z"/>
<path class="e" d="M117.066,240.559c-9.4-8.013-22.775-11.181-34.883-8.926-6.484,1.208-12.979,4.449-16.427,10.3-3.536,6-2.938,13.148.277,19.129a33.079,33.079,0,0,0,7.368,9.061,27.108,27.108,0,0,0,10.806,6.252L82.53,274.7c.683,2.239,1.347,4.484,2.043,6.719a3.857,3.857,0,0,0,1.717,2.5,7.827,7.827,0,0,0,3.4.718c2.228.1,4.47.048,6.7.053,5.257.014,10.517.043,15.774-.034,2.18-.032,5.391-.312,5.445-3.184a21.278,21.278,0,0,0-.6-3.732q-.366-2.16-.73-4.321l-1.677,2.952c6.958-2.041,11.289-9.513,11.767-16.427.525-7.586-3.788-14.546-9.309-19.385-2.314-2.029-5.722,1.353-3.394,3.394,4.407,3.863,8.071,9.089,7.941,15.178-.107,5-3.178,11.114-8.281,12.612a2.469,2.469,0,0,0-1.676,2.952l.609,3.605q.142.834.283,1.666l.161.947q.07.867.13.153l.617-1.059c.491-.463.186-.219-.25-.178-.344.032-.7.022-1.04.027s-.7.008-1.043.011q-1.325.012-2.649.016-3.636.015-7.271.013-3.609,0-7.219-.014-1.293-.006-2.587-.016a8.118,8.118,0,0,1-2.9-.234l.861.861a12.669,12.669,0,0,1-.691-2.129l-.816-2.686a13.425,13.425,0,0,0-.93-2.832c-.625-1.068-1.834-1.165-2.889-1.538a24.566,24.566,0,0,1-8.32-5.576c-4.379-4.165-8.352-10.1-7.527-16.436.777-5.962,5.539-10.062,10.977-11.918a37.092,37.092,0,0,1,14.32-1.477,35.293,35.293,0,0,1,20.194,8.052,2.464,2.464,0,0,0,3.394,0A2.421,2.421,0,0,0,117.066,240.559Z"/>
<path class="e" d="M102.826,277.256l1.038,4.736a2.4,2.4,0,0,0,4.386.573,2.608,2.608,0,0,0,.242-1.849l-1.037-4.736a2.4,2.4,0,0,0-4.387-.573,2.612,2.612,0,0,0-.242,1.849Z"/>
<path class="e" d="M92.58,277.256l1.2,4.736a2.4,2.4,0,0,0,2.952,1.676,2.431,2.431,0,0,0,1.435-1.1,2.542,2.542,0,0,0,.242-1.849l-1.2-4.736a2.4,2.4,0,0,0-2.952-1.676,2.426,2.426,0,0,0-1.434,1.1,2.532,2.532,0,0,0-.242,1.849Z"/>
</g>
</svg>